<svg xmlns:xlink="http://www.w3.org/1999/xlink" xmlns="http://www.w3.org/2000/svg" width="42" height="30" viewBox="3 9 42 30" fill="none" x="577" y="480">&#xa;<path d="M22 12L20.172 10.172C19.4218 9.42156 18.4041 8.99996 17.343 9H5.5C4.11929 9 3 10.1193 3 11.5V36.5C3 37.8807 4.11929 39 5.5 39H42.5C43.8807 39 45 37.8807 45 36.5V14.5C45 13.1193 43.8807 12 42.5 12H22Z" fill="#FFB900"/>&#xa;<path d="M22 12L20.025 13.975C19.3686 14.6314 18.4783 15.0001 17.55 15H3V36.5C3 37.8807 4.11929 39 5.5 39H42.5C43.8807 39 45 37.8807 45 36.5V14.5C45 13.1193 43.8807 12 42.5 12L22 12Z" fill="#FFD75E"/>&#xa;<path d="M22 12L20.172 13.828C19.4218 14.5784 18.4041 15 17.343 15H3V36.5C3 37.8807 4.11929 39 5.5 39H42.5C43.8807 39 45 37.8807 45 36.5V14.5C45 13.1193 43.8807 12 42.5 12L22 12Z" fill="url(#gnpaint0_linear_42538_452)"/>&#xa;<path opacity="0.4" d="M22 12L20.172 13.828C19.4218 14.5784 18.4041 15 17.343 15H3V16H17.636C18.8295 16 19.9741 15.5259 20.818 14.682L23.5 12H22Z" fill="white"/>&#xa;<path d="M5 38C4.33134 37.9975 3.68305 37.7696 3.16 37.353C3.51591 38.3396 4.45121 38.9979 5.5 39H42.5C43.58 39 44.491 38.311 44.84 37.353C44.331 37.752 43.698 38 43 38H5V38Z" fill="#BF5712"/>&#xa;<defs>&#xa;<linearGradient id="gnpaint0_linear_42538_452" x1="3" y1="12" x2="3" y2="39" gradientUnits="userSpaceOnUse">&#xa;<stop stop-color="white" stop-opacity="0.01"/>&#xa;<stop offset="0.999" stop-color="#FFD75E" stop-opacity="0.3"/>&#xa;</linearGradient>&#xa;</defs>&#xa;</svg>